<svg width="34" height="34" viewBox="0 0 34 34" fill="none" xmlns="http://www.w3.org/2000/svg">
<g clip-path="url(#clip0)">
<path d="M4.00927 0.206421H19.0186C20.8988 0.206421 22.4298 1.85496 22.4298 3.8796V12.6953C22.4298 13.1008 22.1241 13.43 21.7475 13.43C21.3709 13.43 21.0653 13.1008 21.0653 12.6953V3.8796C21.0653 2.66448 20.147 1.67568 19.0185 1.67568H4.00914C2.88069 1.67568 1.96241 2.66448 1.96241 3.8796V30.3267C1.96241 31.5418 2.88069 32.5306 4.00914 32.5306H19.0186C20.1471 32.5306 21.0653 31.5418 21.0653 30.3267V21.511C21.0653 21.1055 21.371 20.7763 21.7476 20.7763C22.1242 20.7763 22.4299 21.1055 22.4299 21.511V30.3267C22.4299 32.3513 20.8989 33.9999 19.0187 33.9999H4.00927C2.12903 33.9999 0.598072 32.3513 0.598072 30.3267V3.8796C0.598007 1.85496 2.12896 0.206421 4.00927 0.206421Z" fill="#A5A5A5"/>
<path d="M9.4672 16.3685H31.299C31.6756 16.3685 31.9813 16.6976 31.9813 17.1031C31.9813 17.5087 31.6756 17.8378 31.299 17.8378H9.4672C9.0906 17.8378 8.78493 17.5087 8.78493 17.1031C8.78493 16.6976 9.0906 16.3685 9.4672 16.3685Z" fill="#A5A5A5"/>
<path d="M8.98549 16.586L13.079 12.1781C13.345 11.8916 13.7776 11.8916 14.0437 12.1781C14.3097 12.4646 14.3097 12.9304 14.0437 13.2169L10.4332 17.1047L14.0437 20.9924C14.3097 21.2789 14.3097 21.7447 14.0437 22.0312C13.9099 22.1737 13.7353 22.2457 13.5606 22.2457C13.386 22.2457 13.2114 22.1738 13.079 22.0327L8.98549 17.6249C8.71941 17.3383 8.71941 16.8725 8.98549 16.586Z" fill="#A5A5A5"/>
</g>
<g clip-path="url(#clip1)">
<path d="M5.37377 0.206421H20.3831C22.2634 0.206421 23.7943 1.85496 23.7943 3.8796V12.6953C23.7943 13.1008 23.4886 13.43 23.112 13.43C22.7354 13.43 22.4298 13.1008 22.4298 12.6953V3.8796C22.4298 2.66448 21.5115 1.67568 20.383 1.67568H5.37365C4.24519 1.67568 3.32691 2.66448 3.32691 3.8796V30.3267C3.32691 31.5418 4.24519 32.5306 5.37365 32.5306H20.3831C21.5116 32.5306 22.4298 31.5418 22.4298 30.3267V21.511C22.4298 21.1055 22.7355 20.7763 23.1121 20.7763C23.4887 20.7763 23.7944 21.1055 23.7944 21.511V30.3267C23.7944 32.3513 22.2634 33.9999 20.3832 33.9999H5.37377C3.49353 33.9999 1.96257 32.3513 1.96257 30.3267V3.8796C1.96251 1.85496 3.49347 0.206421 5.37377 0.206421Z" fill="#A5A5A5"/>
<path d="M10.8317 16.3685H32.6635C33.0401 16.3685 33.3458 16.6976 33.3458 17.1031C33.3458 17.5087 33.0401 17.8378 32.6635 17.8378H10.8317C10.4551 17.8378 10.1494 17.5087 10.1494 17.1031C10.1494 16.6976 10.4551 16.3685 10.8317 16.3685Z" fill="#A5A5A5"/>
<path d="M10.35 16.586L14.4435 12.1781C14.7095 11.8916 15.1421 11.8916 15.4082 12.1781C15.6742 12.4646 15.6742 12.9304 15.4082 13.2169L11.7977 17.1047L15.4082 20.9924C15.6742 21.2789 15.6742 21.7447 15.4082 22.0312C15.2744 22.1737 15.0998 22.2457 14.9251 22.2457C14.7505 22.2457 14.5759 22.1738 14.4435 22.0327L10.35 17.6249C10.0839 17.3383 10.0839 16.8725 10.35 16.586Z" fill="#A5A5A5"/>
</g>
<defs>
<clipPath id="clip0">
<rect width="31.3833" height="33.7935" fill="white" transform="matrix(-1 0 0 1 31.9813 0.206421)"/>
</clipPath>
<clipPath id="clip1">
<rect width="31.3833" height="33.7935" fill="white" transform="matrix(-1 0 0 1 33.3458 0.206421)"/>
</clipPath>
</defs>
</svg>
