<svg width="204" height="77" viewBox="0 0 204 77" fill="none" xmlns="http://www.w3.org/2000/svg">
<path d="M0 38.4248C0 17.2034 17.2034 0 38.4248 0H197.219C199.128 0 199.952 2.41923 198.44 3.5843L163.502 30.5034C158.306 34.5064 158.306 42.3432 163.502 46.3463L198.44 73.2654C199.952 74.4305 199.128 76.8497 197.219 76.8497H38.4248C17.2034 76.8497 0 59.6463 0 38.4248Z" fill="#00CB5D"/>
<path d="M11.864 42.52L17.504 32.992H12.08V29.488H22.88V32.992L17.36 42.496H23.12V46H11.864V42.52ZM33.3026 46.384C31.5746 46.384 30.0386 46.016 28.6946 45.28C27.3666 44.544 26.3266 43.528 25.5746 42.232C24.8386 40.92 24.4706 39.432 24.4706 37.768C24.4706 36.088 24.8386 34.592 25.5746 33.28C26.3266 31.968 27.3666 30.952 28.6946 30.232C30.0386 29.496 31.5746 29.128 33.3026 29.128C35.0306 29.128 36.5586 29.496 37.8866 30.232C39.2306 30.952 40.2706 31.968 41.0066 33.28C41.7586 34.576 42.1346 36.072 42.1346 37.768C42.1346 39.432 41.7586 40.92 41.0066 42.232C40.2706 43.528 39.2306 44.544 37.8866 45.28C36.5426 46.016 35.0146 46.384 33.3026 46.384ZM33.3026 42.016C34.3106 42.016 35.1346 41.624 35.7746 40.84C36.4306 40.056 36.7586 39.024 36.7586 37.744C36.7586 36.896 36.6066 36.144 36.3026 35.488C36.0146 34.816 35.6066 34.296 35.0786 33.928C34.5506 33.544 33.9506 33.352 33.2786 33.352C32.6226 33.352 32.0306 33.544 31.5026 33.928C30.9746 34.296 30.5666 34.816 30.2786 35.488C29.9906 36.144 29.8466 36.896 29.8466 37.744C29.8466 39.024 30.1666 40.056 30.8066 40.84C31.4466 41.624 32.2786 42.016 33.3026 42.016ZM52.451 46.384C50.723 46.384 49.187 46.016 47.843 45.28C46.515 44.544 45.475 43.528 44.723 42.232C43.987 40.92 43.619 39.432 43.619 37.768C43.619 36.088 43.987 34.592 44.723 33.28C45.475 31.968 46.515 30.952 47.843 30.232C49.187 29.496 50.723 29.128 52.451 29.128C54.179 29.128 55.707 29.496 57.035 30.232C58.379 30.952 59.419 31.968 60.155 33.28C60.907 34.576 61.283 36.072 61.283 37.768C61.283 39.432 60.907 40.92 60.155 42.232C59.419 43.528 58.379 44.544 57.035 45.28C55.691 46.016 54.163 46.384 52.451 46.384ZM52.451 42.016C53.459 42.016 54.283 41.624 54.923 40.84C55.579 40.056 55.907 39.024 55.907 37.744C55.907 36.896 55.755 36.144 55.451 35.488C55.163 34.816 54.755 34.296 54.227 33.928C53.699 33.544 53.099 33.352 52.427 33.352C51.771 33.352 51.179 33.544 50.651 33.928C50.123 34.296 49.715 34.816 49.427 35.488C49.139 36.144 48.995 36.896 48.995 37.744C48.995 39.024 49.315 40.056 49.955 40.84C50.595 41.624 51.427 42.016 52.451 42.016ZM63.5834 29.488H69.5354C71.9994 29.488 73.9034 29.968 75.2474 30.928C76.6074 31.888 77.2874 33.232 77.2874 34.96C77.2874 36.048 76.9514 37 76.2794 37.816C75.6234 38.632 74.7194 39.264 73.5674 39.712C72.4314 40.144 71.1674 40.36 69.7754 40.36H68.7674V46H63.5834V29.488ZM69.7994 37.024C70.6474 37.024 71.3034 36.848 71.7674 36.496C72.2314 36.144 72.4634 35.632 72.4634 34.96C72.4634 34.288 72.2314 33.784 71.7674 33.448C71.3194 33.112 70.6634 32.944 69.7994 32.944H68.7674V36.976C69.0874 37.008 69.4314 37.024 69.7994 37.024ZM79.1694 29.488H84.3534V42.352H90.0894V46H79.1694V29.488ZM95.2034 29.488H102.499L107.275 46H101.635L101.011 42.832H96.7394L96.0434 46H90.6434L95.2034 29.488ZM100.435 39.88L98.8754 32.656L97.2434 39.88H100.435ZM108.865 29.488H113.689L120.265 38.392V29.488H124.561V46H119.761L113.137 37.408V46H108.865V29.488ZM127.685 29.488H139.277V33.136H133.517V36.136H138.773V39.16H133.517V42.352H139.277V46H127.685V29.488ZM144.526 33.136H141.094V29.488H153.55V33.136H150.118V46H144.526V33.136Z" fill="white"/>
</svg>
