<svg width="163" height="87" viewBox="0 0 163 87" fill="none" xmlns="http://www.w3.org/2000/svg">
<path d="M40.0728 5.912C42.4248 5.912 44.2648 6.632 45.5928 8.072C46.9208 9.496 47.5848 11.552 47.5848 14.24C47.5848 16.144 47.2248 17.776 46.5048 19.136C45.8008 20.496 44.8008 21.528 43.5048 22.232C42.2088 22.936 40.7128 23.288 39.0168 23.288C38.1208 23.288 37.2648 23.192 36.4488 23C35.6328 22.792 34.9368 22.504 34.3608 22.136L35.8008 19.28C36.6168 19.84 37.6648 20.12 38.9448 20.12C40.3688 20.12 41.4968 19.704 42.3288 18.872C43.1608 18.024 43.6088 16.808 43.6728 15.224C42.6648 16.232 41.2728 16.736 39.4968 16.736C38.4248 16.736 37.4488 16.52 36.5688 16.088C35.6888 15.656 34.9928 15.048 34.4808 14.264C33.9688 13.464 33.7128 12.544 33.7128 11.504C33.7128 10.384 33.9928 9.4 34.5528 8.552C35.1128 7.704 35.8728 7.056 36.8328 6.608C37.8088 6.144 38.8888 5.912 40.0728 5.912ZM40.3608 13.832C41.2088 13.832 41.8968 13.6 42.4248 13.136C42.9688 12.656 43.2408 12.048 43.2408 11.312C43.2408 10.576 42.9768 9.976 42.4488 9.512C41.9368 9.048 41.2248 8.816 40.3128 8.816C39.4808 8.816 38.8008 9.04 38.2728 9.488C37.7608 9.936 37.5048 10.544 37.5048 11.312C37.5048 12.08 37.7608 12.696 38.2728 13.16C38.8008 13.608 39.4968 13.832 40.3608 13.832ZM64.5509 5.912C66.9029 5.912 68.7429 6.632 70.0709 8.072C71.3989 9.496 72.0629 11.552 72.0629 14.24C72.0629 16.144 71.7029 17.776 70.9829 19.136C70.2789 20.496 69.2789 21.528 67.9829 22.232C66.6869 22.936 65.1909 23.288 63.4949 23.288C62.5989 23.288 61.7429 23.192 60.9269 23C60.1109 22.792 59.4149 22.504 58.8389 22.136L60.2789 19.28C61.0949 19.84 62.1429 20.12 63.4229 20.12C64.8469 20.12 65.9749 19.704 66.8069 18.872C67.6389 18.024 68.0869 16.808 68.1509 15.224C67.1429 16.232 65.7509 16.736 63.9749 16.736C62.9029 16.736 61.9269 16.52 61.0469 16.088C60.1669 15.656 59.4709 15.048 58.9589 14.264C58.4469 13.464 58.1909 12.544 58.1909 11.504C58.1909 10.384 58.4709 9.4 59.0309 8.552C59.5909 7.704 60.3509 7.056 61.3109 6.608C62.2869 6.144 63.3669 5.912 64.5509 5.912ZM64.8389 13.832C65.6869 13.832 66.3749 13.6 66.9029 13.136C67.4469 12.656 67.7189 12.048 67.7189 11.312C67.7189 10.576 67.4549 9.976 66.9269 9.512C66.4149 9.048 65.7029 8.816 64.7909 8.816C63.9589 8.816 63.2789 9.04 62.7509 9.488C62.2389 9.936 61.9829 10.544 61.9829 11.312C61.9829 12.08 62.2389 12.696 62.7509 13.16C63.2789 13.608 63.9749 13.832 64.8389 13.832ZM82.3282 23.288C80.9362 23.288 79.6962 22.944 78.6082 22.256C77.5202 21.568 76.6642 20.576 76.0402 19.28C75.4322 17.968 75.1282 16.408 75.1282 14.6C75.1282 12.792 75.4322 11.24 76.0402 9.944C76.6642 8.632 77.5202 7.632 78.6082 6.944C79.6962 6.256 80.9362 5.912 82.3282 5.912C83.7202 5.912 84.9602 6.256 86.0482 6.944C87.1362 7.632 87.9842 8.632 88.5922 9.944C89.2162 11.24 89.5282 12.792 89.5282 14.6C89.5282 16.408 89.2162 17.968 88.5922 19.28C87.9842 20.576 87.1362 21.568 86.0482 22.256C84.9602 22.944 83.7202 23.288 82.3282 23.288ZM82.3282 20C83.3522 20 84.1522 19.56 84.7282 18.68C85.3202 17.8 85.6162 16.44 85.6162 14.6C85.6162 12.76 85.3202 11.4 84.7282 10.52C84.1522 9.64 83.3522 9.2 82.3282 9.2C81.3202 9.2 80.5202 9.64 79.9282 10.52C79.3522 11.4 79.0642 12.76 79.0642 14.6C79.0642 16.44 79.3522 17.8 79.9282 18.68C80.5202 19.56 81.3202 20 82.3282 20ZM99.8172 23.288C98.4252 23.288 97.1852 22.944 96.0972 22.256C95.0092 21.568 94.1532 20.576 93.5292 19.28C92.9212 17.968 92.6172 16.408 92.6172 14.6C92.6172 12.792 92.9212 11.24 93.5292 9.944C94.1532 8.632 95.0092 7.632 96.0972 6.944C97.1852 6.256 98.4252 5.912 99.8172 5.912C101.209 5.912 102.449 6.256 103.537 6.944C104.625 7.632 105.473 8.632 106.081 9.944C106.705 11.24 107.017 12.792 107.017 14.6C107.017 16.408 106.705 17.968 106.081 19.28C105.473 20.576 104.625 21.568 103.537 22.256C102.449 22.944 101.209 23.288 99.8172 23.288ZM99.8172 20C100.841 20 101.641 19.56 102.217 18.68C102.809 17.8 103.105 16.44 103.105 14.6C103.105 12.76 102.809 11.4 102.217 10.52C101.641 9.64 100.841 9.2 99.8172 9.2C98.8092 9.2 98.0092 9.64 97.4172 10.52C96.8412 11.4 96.5532 12.76 96.5532 14.6C96.5532 16.44 96.8412 17.8 97.4172 18.68C98.0092 19.56 98.8092 20 99.8172 20ZM124.127 17.504V18.848H129.311V20.84H124.127V23H120.215V20.84H117.887V18.848H120.215V6.2H127.487C129.775 6.2 131.559 6.68 132.839 7.64C134.135 8.6 134.783 10.008 134.783 11.864C134.783 13.704 134.135 15.104 132.839 16.064C131.559 17.024 129.775 17.504 127.487 17.504H124.127ZM130.847 11.888C130.847 11.072 130.551 10.448 129.959 10.016C129.383 9.584 128.551 9.368 127.463 9.368H124.127V14.456H127.463C128.551 14.456 129.383 14.24 129.959 13.808C130.551 13.36 130.847 12.72 130.847 11.888Z" fill="black"/>
<path d="M33.2328 15.272H136.991V16.472H33.2328V15.272Z" fill="black"/>
<path d="M13.5003 47.6V77H6.69634V53.06H0.816339V47.6H13.5003ZM42.5141 47.096C46.6301 47.096 49.8501 48.356 52.1741 50.876C54.4981 53.368 55.6601 56.966 55.6601 61.67C55.6601 65.002 55.0301 67.858 53.7701 70.238C52.5381 72.618 50.7881 74.424 48.5201 75.656C46.2521 76.888 43.6341 77.504 40.6661 77.504C39.0981 77.504 37.6001 77.336 36.1721 77C34.7441 76.636 33.5261 76.132 32.5181 75.488L35.0381 70.49C36.4661 71.47 38.3001 71.96 40.5401 71.96C43.0321 71.96 45.0061 71.232 46.4621 69.776C47.9181 68.292 48.7021 66.164 48.8141 63.392C47.0501 65.156 44.6141 66.038 41.5061 66.038C39.6301 66.038 37.9221 65.66 36.3821 64.904C34.8421 64.148 33.6241 63.084 32.7281 61.712C31.8321 60.312 31.3841 58.702 31.3841 56.882C31.3841 54.922 31.8741 53.2 32.8541 51.716C33.8341 50.232 35.1641 49.098 36.8441 48.314C38.5521 47.502 40.4421 47.096 42.5141 47.096ZM43.0181 60.956C44.5021 60.956 45.7061 60.55 46.6301 59.738C47.5821 58.898 48.0581 57.834 48.0581 56.546C48.0581 55.258 47.5961 54.208 46.6721 53.396C45.7761 52.584 44.5301 52.178 42.9341 52.178C41.4781 52.178 40.2881 52.57 39.3641 53.354C38.4681 54.138 38.0201 55.202 38.0201 56.546C38.0201 57.89 38.4681 58.968 39.3641 59.78C40.2881 60.564 41.5061 60.956 43.0181 60.956ZM72.3643 77.504C69.9283 77.504 67.7583 76.902 65.8543 75.698C63.9503 74.494 62.4523 72.758 61.3603 70.49C60.2963 68.194 59.7643 65.464 59.7643 62.3C59.7643 59.136 60.2963 56.42 61.3603 54.152C62.4523 51.856 63.9503 50.106 65.8543 48.902C67.7583 47.698 69.9283 47.096 72.3643 47.096C74.8003 47.096 76.9703 47.698 78.8743 48.902C80.7783 50.106 82.2623 51.856 83.3263 54.152C84.4183 56.42 84.9643 59.136 84.9643 62.3C84.9643 65.464 84.4183 68.194 83.3263 70.49C82.2623 72.758 80.7783 74.494 78.8743 75.698C76.9703 76.902 74.8003 77.504 72.3643 77.504ZM72.3643 71.75C74.1563 71.75 75.5563 70.98 76.5643 69.44C77.6003 67.9 78.1183 65.52 78.1183 62.3C78.1183 59.08 77.6003 56.7 76.5643 55.16C75.5563 53.62 74.1563 52.85 72.3643 52.85C70.6003 52.85 69.2003 53.62 68.1643 55.16C67.1563 56.7 66.6523 59.08 66.6523 62.3C66.6523 65.52 67.1563 67.9 68.1643 69.44C69.2003 70.98 70.6003 71.75 72.3643 71.75ZM101.71 77.504C99.2742 77.504 97.1042 76.902 95.2002 75.698C93.2962 74.494 91.7982 72.758 90.7062 70.49C89.6422 68.194 89.1102 65.464 89.1102 62.3C89.1102 59.136 89.6422 56.42 90.7062 54.152C91.7982 51.856 93.2962 50.106 95.2002 48.902C97.1042 47.698 99.2742 47.096 101.71 47.096C104.146 47.096 106.316 47.698 108.22 48.902C110.124 50.106 111.608 51.856 112.672 54.152C113.764 56.42 114.31 59.136 114.31 62.3C114.31 65.464 113.764 68.194 112.672 70.49C111.608 72.758 110.124 74.494 108.22 75.698C106.316 76.902 104.146 77.504 101.71 77.504ZM101.71 71.75C103.502 71.75 104.902 70.98 105.91 69.44C106.946 67.9 107.464 65.52 107.464 62.3C107.464 59.08 106.946 56.7 105.91 55.16C104.902 53.62 103.502 52.85 101.71 52.85C99.9462 52.85 98.5462 53.62 97.5102 55.16C96.5022 56.7 95.9982 59.08 95.9982 62.3C95.9982 65.52 96.5022 67.9 97.5102 69.44C98.5462 70.98 99.9462 71.75 101.71 71.75ZM141.733 67.382V69.734H150.805V73.22H141.733V77H134.887V73.22H130.813V69.734H134.887V47.6H147.613C151.617 47.6 154.739 48.44 156.979 50.12C159.247 51.8 160.381 54.264 160.381 57.512C160.381 60.732 159.247 63.182 156.979 64.862C154.739 66.542 151.617 67.382 147.613 67.382H141.733ZM153.493 57.554C153.493 56.126 152.975 55.034 151.939 54.278C150.931 53.522 149.475 53.144 147.571 53.144H141.733V62.048H147.571C149.475 62.048 150.931 61.67 151.939 60.914C152.975 60.13 153.493 59.01 153.493 57.554Z" fill="#AD232C"/>
</svg>
